<svg version="1.1" xmlns="http://www.w3.org/2000/svg" viewBox="0 0 3422.6462206060605 989.2129293465955" width="10267.938661818182" height="2967.6387880397865" stroke="2"><!-- svg-source:excalidraw --><metadata></metadata><defs><style class="style-fonts">
      </style></defs><g stroke-linecap="round"><g stroke-opacity="0.8" fill-opacity="0.8" transform="translate(1641.3231103030303 970) rotate(0 0 -160)" fill-rule="evenodd"><path d="M0 0 C150 -3.33, 800 33.33, 900 -20 C1000 -73.33, 850 -270, 600 -320 C350 -370, -350 -370, -600 -320 C-850 -270, -1000 -73.33, -900 -20 C-800 33.33, -150 -3.33, 0 0" stroke="none" stroke-width="0" fill="#ffffff" fill-rule="evenodd"></path><path d="M0 0 C150 -3.33, 800 33.33, 900 -20 C1000 -73.33, 850 -270, 600 -320 C350 -370, -350 -370, -600 -320 C-850 -270, -1000 -73.33, -900 -20 C-800 33.33, -150 -3.33, 0 0 M0 0 C150 -3.33, 800 33.33, 900 -20 C1000 -73.33, 850 -270, 600 -320 C350 -370, -350 -370, -600 -320 C-850 -270, -1000 -73.33, -900 -20 C-800 33.33, -150 -3.33, 0 0" stroke="#ffffff" stroke-width="1" fill="none"></path></g></g><mask></mask><g stroke-linecap="round"><g stroke-opacity="0.8" fill-opacity="0.8" transform="translate(1641.3231103030303 610) rotate(0 0 -180)" fill-rule="evenodd"><path d="M0 0 C83.33 3.33, 440 66.67, 500 20 C560 -26.67, 443.33 -213.33, 360 -280 C276.67 -346.67, 120 -380, 0 -380 C-120 -380, -276.67 -346.67, -360 -280 C-443.33 -213.33, -560 -26.67, -500 20 C-440 66.67, -83.33 3.33, 0 0" stroke="none" stroke-width="0" fill="#ffffff" fill-rule="evenodd"></path><path d="M0 0 C83.33 3.33, 440 66.67, 500 20 C560 -26.67, 443.33 -213.33, 360 -280 C276.67 -346.67, 120 -380, 0 -380 C-120 -380, -276.67 -346.67, -360 -280 C-443.33 -213.33, -560 -26.67, -500 20 C-440 66.67, -83.33 3.33, 0 0 M0 0 C83.33 3.33, 440 66.67, 500 20 C560 -26.67, 443.33 -213.33, 360 -280 C276.67 -346.67, 120 -380, 0 -380 C-120 -380, -276.67 -346.67, -360 -280 C-443.33 -213.33, -560 -26.67, -500 20 C-440 66.67, -83.33 3.33, 0 0" stroke="#ffffff" stroke-width="1" fill="none"></path></g></g><mask></mask><g stroke-linecap="round"><g stroke-opacity="0.8" fill-opacity="0.8" transform="translate(2121.3231103030303 770) rotate(0 0 -160)" fill-rule="evenodd"><path d="M0 0 C150 -3.33, 800 33.33, 900 -20 C1000 -73.33, 850 -270, 600 -320 C350 -370, -350 -370, -600 -320 C-850 -270, -1000 -73.33, -900 -20 C-800 33.33, -150 -3.33, 0 0" stroke="none" stroke-width="0" fill="#ffffff" fill-rule="evenodd"></path><path d="M0 0 C150 -3.33, 800 33.33, 900 -20 C1000 -73.33, 850 -270, 600 -320 C350 -370, -350 -370, -600 -320 C-850 -270, -1000 -73.33, -900 -20 C-800 33.33, -150 -3.33, 0 0 M0 0 C150 -3.33, 800 33.33, 900 -20 C1000 -73.33, 850 -270, 600 -320 C350 -370, -350 -370, -600 -320 C-850 -270, -1000 -73.33, -900 -20 C-800 33.33, -150 -3.33, 0 0" stroke="#ffffff" stroke-width="1" fill="none"></path></g></g><mask></mask><g stroke-linecap="round"><g stroke-opacity="0.8" fill-opacity="0.8" transform="translate(2121.3231103030303 410) rotate(0 0 -180)" fill-rule="evenodd"><path d="M0 0 C83.33 3.33, 440 66.67, 500 20 C560 -26.67, 443.33 -213.33, 360 -280 C276.67 -346.67, 120 -380, 0 -380 C-120 -380, -276.67 -346.67, -360 -280 C-443.33 -213.33, -560 -26.67, -500 20 C-440 66.67, -83.33 3.33, 0 0" stroke="none" stroke-width="0" fill="#ffffff" fill-rule="evenodd"></path><path d="M0 0 C83.33 3.33, 440 66.67, 500 20 C560 -26.67, 443.33 -213.33, 360 -280 C276.67 -346.67, 120 -380, 0 -380 C-120 -380, -276.67 -346.67, -360 -280 C-443.33 -213.33, -560 -26.67, -500 20 C-440 66.67, -83.33 3.33, 0 0 M0 0 C83.33 3.33, 440 66.67, 500 20 C560 -26.67, 443.33 -213.33, 360 -280 C276.67 -346.67, 120 -380, 0 -380 C-120 -380, -276.67 -346.67, -360 -280 C-443.33 -213.33, -560 -26.67, -500 20 C-440 66.67, -83.33 3.33, 0 0" stroke="#ffffff" stroke-width="1" fill="none"></path></g></g><mask></mask><g stroke-linecap="round"><g stroke-opacity="0.8" fill-opacity="0.8" transform="translate(1361.3231103030303 750) rotate(0 0 -160)" fill-rule="evenodd"><path d="M0 0 C150 -3.33, 800 33.33, 900 -20 C1000 -73.33, 850 -270, 600 -320 C350 -370, -350 -370, -600 -320 C-850 -270, -1000 -73.33, -900 -20 C-800 33.33, -150 -3.33, 0 0" stroke="none" stroke-width="0" fill="#ffffff" fill-rule="evenodd"></path><path d="M0 0 C150 -3.33, 800 33.33, 900 -20 C1000 -73.33, 850 -270, 600 -320 C350 -370, -350 -370, -600 -320 C-850 -270, -1000 -73.33, -900 -20 C-800 33.33, -150 -3.33, 0 0 M0 0 C150 -3.33, 800 33.33, 900 -20 C1000 -73.33, 850 -270, 600 -320 C350 -370, -350 -370, -600 -320 C-850 -270, -1000 -73.33, -900 -20 C-800 33.33, -150 -3.33, 0 0" stroke="#ffffff" stroke-width="1" fill="none"></path></g></g><mask></mask><g stroke-linecap="round"><g stroke-opacity="0.8" fill-opacity="0.8" transform="translate(1361.3231103030303 390) rotate(0 0 -180)" fill-rule="evenodd"><path d="M0 0 C83.33 3.33, 440 66.67, 500 20 C560 -26.67, 443.33 -213.33, 360 -280 C276.67 -346.67, 120 -380, 0 -380 C-120 -380, -276.67 -346.67, -360 -280 C-443.33 -213.33, -560 -26.67, -500 20 C-440 66.67, -83.33 3.33, 0 0" stroke="none" stroke-width="0" fill="#ffffff" fill-rule="evenodd"></path><path d="M0 0 C83.33 3.33, 440 66.67, 500 20 C560 -26.67, 443.33 -213.33, 360 -280 C276.67 -346.67, 120 -380, 0 -380 C-120 -380, -276.67 -346.67, -360 -280 C-443.33 -213.33, -560 -26.67, -500 20 C-440 66.67, -83.33 3.33, 0 0 M0 0 C83.33 3.33, 440 66.67, 500 20 C560 -26.67, 443.33 -213.33, 360 -280 C276.67 -346.67, 120 -380, 0 -380 C-120 -380, -276.67 -346.67, -360 -280 C-443.33 -213.33, -560 -26.67, -500 20 C-440 66.67, -83.33 3.33, 0 0" stroke="#ffffff" stroke-width="1" fill="none"></path></g></g><mask></mask><g stroke-linecap="round"><g stroke-opacity="0.8" fill-opacity="0.8" transform="translate(941.3231103030303 970) rotate(0 0 -160)" fill-rule="evenodd"><path d="M0 0 C150 -3.33, 800 33.33, 900 -20 C1000 -73.33, 850 -270, 600 -320 C350 -370, -350 -370, -600 -320 C-850 -270, -1000 -73.33, -900 -20 C-800 33.33, -150 -3.33, 0 0" stroke="none" stroke-width="0" fill="#ffffff" fill-rule="evenodd"></path><path d="M0 0 C150 -3.33, 800 33.33, 900 -20 C1000 -73.33, 850 -270, 600 -320 C350 -370, -350 -370, -600 -320 C-850 -270, -1000 -73.33, -900 -20 C-800 33.33, -150 -3.33, 0 0 M0 0 C150 -3.33, 800 33.33, 900 -20 C1000 -73.33, 850 -270, 600 -320 C350 -370, -350 -370, -600 -320 C-850 -270, -1000 -73.33, -900 -20 C-800 33.33, -150 -3.33, 0 0" stroke="#ffffff" stroke-width="1" fill="none"></path></g></g><mask></mask><g stroke-linecap="round"><g stroke-opacity="0.8" fill-opacity="0.8" transform="translate(941.3231103030303 610) rotate(0 0 -180)" fill-rule="evenodd"><path d="M0 0 C83.33 3.33, 440 66.67, 500 20 C560 -26.67, 443.33 -213.33, 360 -280 C276.67 -346.67, 120 -380, 0 -380 C-120 -380, -276.67 -346.67, -360 -280 C-443.33 -213.33, -560 -26.67, -500 20 C-440 66.67, -83.33 3.33, 0 0" stroke="none" stroke-width="0" fill="#ffffff" fill-rule="evenodd"></path><path d="M0 0 C83.33 3.33, 440 66.67, 500 20 C560 -26.67, 443.33 -213.33, 360 -280 C276.67 -346.67, 120 -380, 0 -380 C-120 -380, -276.67 -346.67, -360 -280 C-443.33 -213.33, -560 -26.67, -500 20 C-440 66.67, -83.33 3.33, 0 0 M0 0 C83.33 3.33, 440 66.67, 500 20 C560 -26.67, 443.33 -213.33, 360 -280 C276.67 -346.67, 120 -380, 0 -380 C-120 -380, -276.67 -346.67, -360 -280 C-443.33 -213.33, -560 -26.67, -500 20 C-440 66.67, -83.33 3.33, 0 0" stroke="#ffffff" stroke-width="1" fill="none"></path></g></g><mask></mask><g stroke-linecap="round"><g stroke-opacity="0.8" fill-opacity="0.8" transform="translate(2481.3231103030303 970) rotate(0 0 -160)" fill-rule="evenodd"><path d="M0 0 C150 -3.33, 800 33.33, 900 -20 C1000 -73.33, 850 -270, 600 -320 C350 -370, -350 -370, -600 -320 C-850 -270, -1000 -73.33, -900 -20 C-800 33.33, -150 -3.33, 0 0" stroke="none" stroke-width="0" fill="#ffffff" fill-rule="evenodd"></path><path d="M0 0 C150 -3.33, 800 33.33, 900 -20 C1000 -73.33, 850 -270, 600 -320 C350 -370, -350 -370, -600 -320 C-850 -270, -1000 -73.33, -900 -20 C-800 33.33, -150 -3.33, 0 0 M0 0 C150 -3.33, 800 33.33, 900 -20 C1000 -73.33, 850 -270, 600 -320 C350 -370, -350 -370, -600 -320 C-850 -270, -1000 -73.33, -900 -20 C-800 33.33, -150 -3.33, 0 0" stroke="#ffffff" stroke-width="1" fill="none"></path></g></g><mask></mask><g stroke-linecap="round"><g stroke-opacity="0.8" fill-opacity="0.8" transform="translate(2481.3231103030303 610) rotate(0 0 -180)" fill-rule="evenodd"><path d="M0 0 C83.33 3.33, 440 66.67, 500 20 C560 -26.67, 443.33 -213.33, 360 -280 C276.67 -346.67, 120 -380, 0 -380 C-120 -380, -276.67 -346.67, -360 -280 C-443.33 -213.33, -560 -26.67, -500 20 C-440 66.67, -83.33 3.33, 0 0" stroke="none" stroke-width="0" fill="#ffffff" fill-rule="evenodd"></path><path d="M0 0 C83.33 3.33, 440 66.67, 500 20 C560 -26.67, 443.33 -213.33, 360 -280 C276.67 -346.67, 120 -380, 0 -380 C-120 -380, -276.67 -346.67, -360 -280 C-443.33 -213.33, -560 -26.67, -500 20 C-440 66.67, -83.33 3.33, 0 0 M0 0 C83.33 3.33, 440 66.67, 500 20 C560 -26.67, 443.33 -213.33, 360 -280 C276.67 -346.67, 120 -380, 0 -380 C-120 -380, -276.67 -346.67, -360 -280 C-443.33 -213.33, -560 -26.67, -500 20 C-440 66.67, -83.33 3.33, 0 0" stroke="#ffffff" stroke-width="1" fill="none"></path></g></g><mask></mask></svg>